<?xml version="1.0" encoding="iso-8859-1"?>
<!-- Generator: Adobe Illustrator 19.0.0, SVG Export Plug-In . SVG Version: 6.00 Build 0)  -->
<svg version="1.1" id="Layer_1" xmlns="http://www.w3.org/2000/svg" xmlns:xlink="http://www.w3.org/1999/xlink" x="0px" y="0px"
	 viewBox="0 0 512 512" style="enable-background:new 0 0 512 512;" xml:space="preserve">
<path style="fill:#0A547B;" d="M411,12.962C411,12.962,342.697,0,256.001,0S101.001,12.962,101.001,12.962
	S90.549,125.953,90.549,256S101,499.038,101,499.038S169.304,512,256.001,512S411,499.038,411,499.038S421.451,386.047,421.451,256
	S411,12.962,411,12.962z"/>
<g>
	<path style="fill:#74E7E7;" d="M370.916,66.406c0-11.264-9.216-20.48-20.48-20.48H161.565c-11.264,0-20.48,9.216-20.48,20.48v20.48
		l114.916,22.756l114.916-22.756V66.406z"/>
	<path style="fill:#74E7E7;" d="M141.085,350.851c0,11.264,9.216,20.48,20.48,20.48h188.871c11.264,0,20.48-9.216,20.48-20.48
		V245.76l-114.916-22.756L141.085,245.76V350.851z"/>
</g>
<rect x="141.085" y="86.881" style="fill:#FFFFFF;" width="229.831" height="158.868"/>
<path style="fill:#06344C;" d="M299.236,433.34h-37.402v17.067h37.402c4.713,0,8.533-3.82,8.533-8.533
	C307.769,437.159,303.949,433.34,299.236,433.34z"/>
<circle style="fill:#0299D1;" cx="256.001" cy="441.879" r="28.592"/>
<g>
</g>
<g>
</g>
<g>
</g>
<g>
</g>
<g>
</g>
<g>
</g>
<g>
</g>
<g>
</g>
<g>
</g>
<g>
</g>
<g>
</g>
<g>
</g>
<g>
</g>
<g>
</g>
<g>
</g>
</svg>
